<svg width="20" height="31" viewBox="0 0 20 31" fill="none" xmlns="http://www.w3.org/2000/svg">
<path d="M12.0997 12.964V8.0352C13.7158 8.42862 15.2957 9.17793 16.5883 10.3567L16.5937 10.3494C16.6903 10.426 16.8074 10.4786 16.9408 10.4786C17.1162 10.4786 17.2667 10.3943 17.3707 10.27L17.378 10.2714L19.4672 7.34244L19.4623 7.34C19.548 7.24152 19.6049 7.11672 19.6049 6.97632C19.6049 6.81056 19.5299 6.66528 19.4152 6.56242C17.4775 4.78251 15.0036 3.71388 12.0997 3.39261V0.562103C12.0997 0.251557 11.8463 0 11.534 0H9.28997C8.97772 0 8.72478 0.251557 8.72478 0.562103V3.32094C3.87686 3.82064 1.00439 6.89246 1.00439 10.4996C1.00439 15.3567 5.02635 16.7495 8.72478 17.6426V23.1778C6.34984 22.7547 4.39793 21.5305 3.07002 20.1601C3.06087 20.1504 3.05107 20.141 3.04061 20.1319L3.01512 20.107L3.0112 20.1124C2.91298 20.0284 2.78827 19.9813 2.65876 19.9793C2.55791 19.9802 2.45919 20.0082 2.37306 20.0604C2.28694 20.1126 2.21661 20.187 2.16955 20.2757L2.16269 20.2747L0.140682 23.2602L0.143134 23.2651C0.0521427 23.3651 0.00121352 23.4949 0 23.6298C0 23.8087 0.0892135 23.9608 0.219602 24.0637L0.214211 24.0715C2.18916 26.0357 4.95429 27.4641 8.72478 27.7858V30.4379C8.72478 30.7484 8.97772 31 9.28997 31H11.534C11.8463 31 12.0992 30.748 12.0992 30.4379L12.0997 27.7853C17.3785 27.2491 20 24.1787 20 20.2138C20 15.3216 15.8344 13.8922 12.0997 12.964ZM8.72429 12.142C7.25227 11.6784 6.24641 11.1421 6.24641 10.1062C6.24641 8.89225 7.14443 8.0352 8.72429 7.82069V12.142ZM12.0997 23.2495V18.4641C13.6801 18.9638 14.7933 19.5361 14.7933 20.714C14.7933 21.8572 13.931 22.8922 12.0997 23.2495Z" fill="#0B3A2C"/>
</svg>
