<svg width="43" height="43" viewBox="0 0 43 43" fill="none" xmlns="http://www.w3.org/2000/svg">
<g clip-path="url(#clip0_206_8204)">
<path d="M29.0631 20.9812L22.8929 28.8507C21.8701 30.1551 20.3711 30.9999 18.7255 31.1991C17.0799 31.3982 15.4226 30.9355 14.1181 29.9128C12.8137 28.89 11.9689 27.3909 11.7698 25.7453C11.5706 24.0997 12.0333 22.4424 13.056 21.138L20.3831 11.793C21.0991 10.8798 22.1484 10.2885 23.3003 10.1491C24.4522 10.0097 25.6124 10.3336 26.5255 11.0495C27.4386 11.7654 28.0299 12.8148 28.1693 13.9667C28.3087 15.1186 27.9849 16.2787 27.2689 17.1918L20.7131 25.5532C20.304 26.075 19.7044 26.4129 19.0461 26.4925C18.3879 26.5722 17.725 26.3871 17.2032 25.978C16.6814 25.5689 16.3435 24.9693 16.2639 24.3111C16.1842 23.6528 16.3693 22.9899 16.7784 22.4681L22.1773 15.5823" stroke="#151515" stroke-width="2" stroke-linecap="round" stroke-linejoin="round"/>
</g>
<defs>
<clipPath id="clip0_206_8204">
<rect width="30" height="30" fill="white" transform="matrix(-0.78695 -0.617017 -0.617017 0.78695 42.1191 18.5105)"/>
</clipPath>
</defs>
</svg>
