<svg width="12" height="12" viewBox="0 0 12 12" fill="none" xmlns="http://www.w3.org/2000/svg">
<path d="M1.56858 0.0448837C0.980187 0.173203 0.438742 0.617626 0.178974 1.18411C-0.0119406 1.59723 -0.0056811 1.41258 0.00370812 6.11032L0.0130973 10.4043L0.0976003 10.6328C0.21653 10.9614 0.357369 11.1836 0.592099 11.4215C0.829959 11.6562 1.05217 11.7971 1.38079 11.916L1.60926 12.0005H5.9909H10.3725L10.5916 11.9316C10.8983 11.8346 11.1831 11.6593 11.421 11.4215C11.6557 11.1836 11.7966 10.9583 11.9155 10.6328L12 10.4043V6.00704V1.60975L11.9155 1.38128C11.7277 0.858616 11.3741 0.45175 10.9171 0.223279C10.4476 -0.0145807 10.7137 -0.00206184 5.9909 0.00106812C2.54819 0.00106812 1.72819 0.010457 1.56858 0.0448837ZM10.3757 1.44388C10.4414 1.49082 10.5322 1.58159 10.576 1.64731L10.6542 1.76311L10.6636 3.6034C10.6667 4.6143 10.6636 5.44368 10.6511 5.44368C10.6417 5.44368 10.5478 5.42178 10.4476 5.39674C10.288 5.35605 10.0126 5.34979 8.59484 5.35605C6.97051 5.36544 6.92356 5.36857 6.72639 5.4343C6.15052 5.63147 5.67793 6.09154 5.44632 6.68932L5.36495 6.89901L5.35556 8.57968C5.3493 10.0131 5.35243 10.2885 5.39625 10.445C5.42129 10.5483 5.44319 10.6422 5.44319 10.6516C5.44319 10.6641 4.61381 10.6672 3.60291 10.6641L1.76262 10.6547L1.64682 10.5765C1.5811 10.5326 1.49033 10.4419 1.44339 10.3762L1.35889 10.2541L1.3495 6.2762L1.34324 2.2983L2.21956 3.17462C2.94879 3.90385 3.0865 4.05408 3.03956 4.07912C2.89872 4.15423 2.74849 4.33889 2.70154 4.4985C2.62956 4.74575 2.68277 4.9398 2.87368 5.13071C3.07398 5.33101 3.16787 5.34979 4.0129 5.34979C4.85793 5.34979 4.96747 5.32788 5.15526 5.11506C5.22724 5.03056 5.29297 4.91789 5.31488 4.83339C5.36182 4.65186 5.36182 3.35615 5.31488 3.17462C5.29297 3.09012 5.22724 2.97745 5.15526 2.89295C4.86732 2.56745 4.36031 2.60814 4.12245 2.97432L4.0442 3.09325L3.171 2.21692L2.29781 1.34373L6.27571 1.34999L10.2536 1.35938L10.3757 1.44388Z" fill="#0B3A2C"/>
</svg>
